#!OML:ASF X:\für Bonn\!DataBase\2005_08_10_Bjorn_Final\c3d\bjorn.ASF
:FULLY-SPECIFIED
:DEGREES
63
root 4.86247 23.6075 -16.7071 9.7151 -10.0507 0.937198
lowerback -2.84868 0.984356 -1.69804
upperback 2.70974 1.49596 -2.56427
thorax 4.42103 0.731949 -1.598
lowerneck -0.42397 -0.860207 1.97129
upperneck 9.18663 -1.27168 0.565474
head 2.98965 -0.549804 -0.191724
rclavicle 1.03368e-014 2.8625e-014
rhumerus -5.69681 -0.109188 -70.8655
rradius 120.412
rwrist -198.786
rhand -1.28176e-012 1.3899e-012
rfingers 7.12502
rthumb 25.5904 -28.3008
lclavicle 1.03368e-014 2.8625e-014
lhumerus 5.4144 -16.2861 63.9264
lradius 105.405
lwrist 4.01603
lhand 1.40899e-012 1.24042e-012
lfingers 7.12502
lthumb 25.5904 28.3008
rfemur -16.5742 -9.96367 13.8775
rtibia 42.4167
rfoot 19.3232 8.58839
rtoes -11.8239
lfemur -16.7792 10.7415 -20.5441
ltibia 42.4444
lfoot 20.497 -6.14982
ltoes -20.9543
64
root 4.87162 23.6629 -16.566 9.57934 -10.1091 1.10334
lowerback -2.17299 0.990823 -1.84799
upperback 2.89918 1.49745 -2.69395
thorax 4.2346 0.730784 -1.65831
lowerneck -0.274168 -0.823149 1.75628
upperneck 8.84604 -1.23363 0.907265
head 2.84972 -0.530759 -0.0420218
rclavicle -9.93923e-015 -3.57812e-014
rhumerus -6.20754 0.376345 -71.6588
rradius 119.546
rwrist -198.219
rhand 1.76521e-012 -2.33453e-012
rfingers 7.12502
rthumb 25.5904 -28.3008
lclavicle -9.93923e-015 -3.57812e-014
lhumerus 5.2213 -16.8127 64.6855
lradius 104.567
lwrist 3.82088
lhand -1.77793e-012 -2.09121e-012
lfingers 7.12502
lthumb 25.5904 28.3008
rfemur -17.1446 -9.95708 13.885
rtibia 42.3993
rfoot 18.2416 9.11711
rtoes -13.0449
lfemur -17.2162 10.7432 -20.8224
ltibia 41.915
lfoot 19.4492 -6.12268
ltoes -22.8306
65
root 4.87902 23.7032 -16.4259 9.47268 -10.138 1.21461
lowerback -1.50152 0.986939 -1.98755
upperback 3.07013 1.47993 -2.77764
thorax 4.03012 0.719806 -1.67796
lowerneck -0.0540219 -0.785018 1.54114
upperneck 8.52051 -1.1867 1.1797
head 2.70252 -0.509975 0.0848485
rclavicle 3.97569e-015 -6.2816e-014
rhumerus -6.82714 0.87482 -72.5065
rradius 118.536
rwrist -197.808
rhand 2.14051e-012 -5.40694e-013
rfingers 7.12502
rthumb 25.5904 -28.3008
lclavicle 3.97569e-015 -6.2816e-014
lhumerus 4.91132 -17.3346 65.4803
lradius 103.68
lwrist 3.46916
lhand -2.35679e-012 1.74931e-014
lfingers 7.12502
lthumb 25.5904 28.3008
rfemur -17.7489 -9.83889 13.9723
rtibia 42.3282
rfoot 16.983 9.41805
rtoes -14.4982
lfemur -17.7137 10.6827 -21.0147
ltibia 41.3938
lfoot 18.3886 -5.98169
ltoes -23.7305
66
root 4.88703 23.7346 -16.284 9.40563 -10.1766 1.24957
lowerback -0.866096 0.988989 -2.03325
upperback 3.24402 1.46681 -2.85818
thorax 3.85166 0.713801 -1.74602
lowerneck 0.183849 -0.755841 1.4411
upperneck 8.16015 -1.14427 1.32747
head 2.53994 -0.492236 0.151427
rclavicle 2.00773e-014 -3.49861e-014
rhumerus -7.45389 1.22419 -73.4083
rradius 117.596
rwrist -197.492
rhand 6.71097e-013 9.79611e-013
rfingers 7.12502
rthumb 25.5904 -28.3008
lclavicle 2.00773e-014 -3.49861e-014
lhumerus 4.55704 -17.9129 66.2533
lradius 102.814
lwrist 3.33905
lhand -4.10292e-013 1.05594e-012
lfingers 7.12502
lthumb 25.5904 28.3008
rfemur -18.3809 -9.67736 14.1454
rtibia 42.1997
rfoot 15.733 9.61302
rtoes -15.8623
lfemur -18.2669 10.5625 -21.1181
ltibia 40.8889
lfoot 17.3428 -5.69129
ltoes -23.6874
67
root 4.89376 23.757 -16.1431 9.36562 -10.1416 1.18759
lowerback -0.202422 0.958248 -2.02897
upperback 3.40367 1.40398 -2.86488
thorax 3.64084 0.683453 -1.76787
lowerneck 0.388755 -0.711754 1.27802
upperneck 7.89731 -1.08087 1.44407
head 2.41698 -0.465808 0.218399
rclavicle 5.96354e-015 2.62396e-014
rhumerus -8.1166 1.60562 -74.266
rradius 116.628
rwrist -196.999
rhand -1.15454e-012 6.83819e-013
rfingers 7.12502
rthumb 25.5904 -28.3008
lclavicle 5.96354e-015 2.62396e-014
lhumerus 4.05029 -18.4786 67.1168
lradius 101.747
lwrist 2.67119
lhand 1.69842e-012 -1.31993e-013
lfingers 7.12502
lthumb 25.5904 28.3008
rfemur -19.0174 -9.4737 14.4471
rtibia 42.0309
rfoot 14.5822 9.66931
rtoes -16.4639
lfemur -18.8762 10.4283 -21.0726
ltibia 40.4053
lfoot 16.3475 -5.39307
ltoes -23.942
68
root 4.90057 23.7717 -16.0019 9.3649 -10.1046 1.14283
lowerback 0.438692 0.953588 -2.00493
upperback 3.55766 1.37758 -2.91727
thorax 3.43967 0.672525 -1.84595
lowerneck 0.581048 -0.691497 1.24416
upperneck 7.6222 -1.05025 1.53641
head 2.2921 -0.452726 0.254635
rclavicle 1.11319e-014 -2.46493e-014
rhumerus -8.82415 1.90135 -75.1856
rradius 115.603
rwrist -196.083
rhand 5.725e-013 2.83069e-013
rfingers 7.12502
rthumb 25.5904 -28.3008
lclavicle 1.11319e-014 -2.46493e-014
lhumerus 3.49971 -19.1046 67.9686
lradius 100.747
lwrist 2.11178
lhand -5.59778e-013 3.27597e-013
lfingers 7.12502
lthumb 25.5904 28.3008
rfemur -19.7107 -9.27953 14.7242
rtibia 41.8399
rfoot 13.6028 9.80764
rtoes -16.3807
lfemur -19.5371 10.2228 -21.0482
ltibia 39.9164
lfoot 15.4765 -5.03677
ltoes -23.9182
69
root 4.90607 23.7741 -15.8611 9.35345 -10.0658 1.16348
lowerback 1.09659 0.932423 -2.07507
upperback 3.70278 1.32891 -2.97214
thorax 3.21786 0.647685 -1.87436
lowerneck 0.761942 -0.660994 1.19725
upperneck 7.40205 -1.00568 1.61008
head 2.18792 -0.433096 0.287107
rclavicle 6.55989e-015 -3.97569e-015
rhumerus -9.55403 2.17282 -76.1191
rradius 114.557
rwrist -195.167
rhand 1.55847e-013 2.09917e-013
rfingers 7.12502
rthumb 25.5904 -28.3008
lclavicle 6.55989e-015 -3.97569e-015
lhumerus 2.869 -19.6445 68.8235
lradius 99.7394
lwrist 1.58884
lhand -1.82882e-013 3.64174e-013
lfingers 7.12502
lthumb 25.5904 28.3008
rfemur -20.4218 -9.06334 14.9245
rtibia 41.6571
rfoot 12.7002 9.94384
rtoes -15.8742
lfemur -20.1851 10.0173 -21.0681
ltibia 39.4078
lfoot 14.7055 -4.62065
ltoes -23.4896
